# Blender v2.79 (sub 0) OBJ File: 'free_map2.blend'
# www.blender.org
mtllib stair.mtl
o Cube.010
v 67.835587 -1.000000 4.346181
v 67.835587 -1.000000 0.450517
v 78.111885 -1.000000 4.346240
v 78.111885 -1.000000 0.450577
v 68.324936 -1.000000 4.346183
v 68.814278 -1.000000 4.346186
v 69.303627 -1.000000 4.346189
v 69.792976 -1.000000 4.346191
v 70.282326 -1.000000 4.346194
v 70.771667 -1.000000 4.346197
v 71.261017 -1.000000 4.346200
v 71.750366 -1.000000 4.346203
v 72.239708 -1.000000 4.346205
v 72.729057 -1.000000 4.346209
v 73.218407 -1.000000 4.346211
v 73.707756 -1.000000 4.346214
v 74.197098 -1.000000 4.346217
v 74.686447 -1.000000 4.346220
v 75.175797 -1.000000 4.346223
v 75.665146 -1.000000 4.346225
v 76.154488 -1.000000 4.346229
v 76.643837 -1.000000 4.346231
v 77.133186 -1.000000 4.346234
v 77.622536 -1.000000 4.346237
v 68.324936 -1.000000 0.450520
v 68.814278 -1.000000 0.450523
v 69.303627 -1.000000 0.450526
v 69.792976 -1.000000 0.450529
v 70.282326 -1.000000 0.450532
v 70.771667 -1.000000 0.450534
v 71.261017 -1.000000 0.450537
v 71.750366 -1.000000 0.450540
v 72.239708 -1.000000 0.450543
v 72.729057 -1.000000 0.450546
v 73.218407 -1.000000 0.450549
v 73.707756 -1.000000 0.450551
v 74.197098 -1.000000 0.450554
v 74.686447 -1.000000 0.450557
v 75.175797 -1.000000 0.450560
v 75.665146 -1.000000 0.450563
v 76.154488 -1.000000 0.450566
v 76.643837 -1.000000 0.450568
v 77.133186 -1.000000 0.450571
v 77.622536 -1.000000 0.450574
v 78.111885 -1.000000 4.346240
v 78.111885 -1.000000 0.450577
v 77.622536 -1.000000 4.346237
v 77.622536 -1.000000 0.450574
v 78.111885 -1.000000 4.346240
v 78.111885 -1.000000 0.450577
v 77.622536 -1.000000 4.346237
v 77.622536 -1.000000 0.450574
v 77.622536 -0.900924 0.450574
v 78.111885 -0.900924 0.450577
v 78.111885 -0.900924 4.346240
v 77.622536 -0.900924 4.346237
v 77.133186 -0.793655 0.450571
v 77.622536 -0.793655 0.450574
v 77.622536 -0.793655 4.346237
v 77.133186 -0.793655 4.346234
v 76.643837 -0.692798 4.346231
v 77.133186 -0.692798 4.346234
v 76.643837 -0.692798 0.450568
v 77.133186 -0.692798 0.450571
v 76.154488 -0.598938 4.346229
v 76.643837 -0.598938 4.346231
v 76.154488 -0.598938 0.450566
v 76.643837 -0.598938 0.450568
v 75.665146 -0.498376 4.346225
v 76.154488 -0.498376 4.346229
v 75.665146 -0.498376 0.450563
v 76.154488 -0.498376 0.450566
v 75.175797 -0.393098 4.346223
v 75.665146 -0.393098 4.346225
v 75.175797 -0.393098 0.450560
v 75.665146 -0.393098 0.450563
v 74.686447 -0.290697 4.346220
v 75.175797 -0.290697 4.346223
v 74.686447 -0.290697 0.450557
v 75.175797 -0.290697 0.450560
v 74.197098 -0.196114 4.346217
v 74.686447 -0.196114 4.346220
v 74.197098 -0.196114 0.450554
v 74.686447 -0.196114 0.450557
v 73.707756 -0.096476 4.346214
v 74.197098 -0.096476 4.346217
v 73.707756 -0.096476 0.450551
v 74.197098 -0.096476 0.450554
v 73.218407 0.000000 4.346211
v 73.707756 0.000000 4.346214
v 73.218407 0.000000 0.450549
v 73.707756 0.000000 0.450551
v 72.729057 0.103070 4.346209
v 73.218407 0.103070 4.346211
v 72.729057 0.103070 0.450546
v 73.218407 0.103070 0.450549
v 72.239708 0.202102 0.450543
v 72.729057 0.202102 0.450546
v 72.729057 0.202102 4.346209
v 72.239708 0.202102 4.346205
v 71.750366 0.299934 0.450540
v 72.239708 0.299934 0.450543
v 72.239708 0.299934 4.346205
v 71.750366 0.299934 4.346203
v 71.261017 0.402687 4.346200
v 71.750366 0.402687 4.346203
v 71.261017 0.402687 0.450537
v 71.750366 0.402687 0.450540
v 70.771667 -1.000000 4.346197
v 71.261017 -1.000000 4.346200
v 70.771667 -1.000000 0.450534
v 71.261017 -1.000000 0.450537
v 70.771667 0.501401 0.450534
v 71.261017 0.501401 0.450537
v 71.261017 0.501401 4.346200
v 70.771667 0.501401 4.346197
v 70.282326 0.601186 0.450532
v 70.771667 0.601186 0.450534
v 70.771667 0.601186 4.346197
v 70.282326 0.601186 4.346194
v 69.792976 0.706664 4.346191
v 70.282326 0.706664 4.346194
v 69.792976 0.706664 0.450529
v 70.282326 0.706664 0.450532
v 69.303627 0.802959 4.346189
v 69.792976 0.802959 4.346191
v 69.303627 0.802959 0.450526
v 69.792976 0.802959 0.450529
v 68.814278 0.902599 4.346186
v 69.303627 0.902599 4.346189
v 68.814278 0.902599 0.450523
v 69.303627 0.902599 0.450526
v 68.324936 1.000000 0.450520
v 68.814278 1.000000 0.450523
v 68.814278 1.000000 4.346186
v 68.324936 1.000000 4.346183
v 67.835587 1.000000 0.450517
v 68.324936 1.000000 0.450520
v 68.324936 1.000000 4.346183
v 67.835587 1.000000 4.346181
vn 0.0000 0.0000 1.0000
vn 0.0000 -1.0000 -0.0000
vn 1.0000 0.0000 0.0000
vn -1.0000 0.0000 0.0000
vn 0.0000 0.0000 -1.0000
usemtl Material.013
s off
f 3//1 24//1 47//1 45//1
f 137//2 138//2 139//2 140//2
f 26//1 27//1 132//1 131//1
f 7//3 27//3 127//3 125//3
f 29//4 9//4 122//4 124//4
f 123//2 124//2 122//2 121//2
f 10//1 30//1 111//1 109//1
f 12//5 11//5 105//5 106//5
f 107//2 108//2 106//2 105//2
f 101//2 102//2 103//2 104//2
f 14//3 34//3 95//3 93//3
f 16//5 15//5 89//5 90//5
f 16//3 36//3 87//3 85//3
f 37//1 38//1 84//1 83//1
f 18//3 38//3 79//3 77//3
f 40//4 20//4 74//4 76//4
f 20//3 40//3 71//3 69//3
f 21//3 41//3 67//3 65//3
f 23//5 22//5 61//5 62//5
f 63//2 64//2 62//2 61//2
f 48//1 46//1 50//1 52//1
f 44//1 4//1 46//1 48//1
f 4//1 3//1 45//1 46//1
f 24//1 44//1 48//1 47//1
f 57//2 58//2 59//2 60//2
f 46//1 45//1 49//1 50//1
f 47//1 48//1 52//1 51//1
f 45//1 47//1 51//1 49//1
f 53//2 54//2 55//2 56//2
f 50//1 54//1 53//1 52//1
f 49//4 55//4 54//4 50//4
f 51//5 56//5 55//5 49//5
f 52//3 53//3 56//3 51//3
f 44//1 58//1 57//1 43//1
f 24//4 59//4 58//4 44//4
f 23//5 60//5 59//5 24//5
f 43//3 57//3 60//3 23//3
f 42//1 43//1 64//1 63//1
f 43//4 23//4 62//4 64//4
f 22//3 42//3 63//3 61//3
f 67//2 68//2 66//2 65//2
f 22//5 21//5 65//5 66//5
f 41//1 42//1 68//1 67//1
f 42//4 22//4 66//4 68//4
f 71//2 72//2 70//2 69//2
f 21//5 20//5 69//5 70//5
f 40//1 41//1 72//1 71//1
f 41//4 21//4 70//4 72//4
f 75//2 76//2 74//2 73//2
f 19//3 39//3 75//3 73//3
f 20//5 19//5 73//5 74//5
f 39//1 40//1 76//1 75//1
f 79//2 80//2 78//2 77//2
f 19//5 18//5 77//5 78//5
f 38//1 39//1 80//1 79//1
f 39//4 19//4 78//4 80//4
f 83//2 84//2 82//2 81//2
f 38//4 18//4 82//4 84//4
f 17//3 37//3 83//3 81//3
f 18//5 17//5 81//5 82//5
f 87//2 88//2 86//2 85//2
f 17//5 16//5 85//5 86//5
f 36//1 37//1 88//1 87//1
f 37//4 17//4 86//4 88//4
f 91//2 92//2 90//2 89//2
f 35//1 36//1 92//1 91//1
f 36//4 16//4 90//4 92//4
f 15//3 35//3 91//3 89//3
f 95//2 96//2 94//2 93//2
f 15//5 14//5 93//5 94//5
f 34//1 35//1 96//1 95//1
f 35//4 15//4 94//4 96//4
f 97//2 98//2 99//2 100//2
f 34//1 98//1 97//1 33//1
f 14//4 99//4 98//4 34//4
f 13//5 100//5 99//5 14//5
f 33//3 97//3 100//3 13//3
f 33//1 102//1 101//1 32//1
f 13//4 103//4 102//4 33//4
f 12//5 104//5 103//5 13//5
f 32//3 101//3 104//3 12//3
f 31//1 32//1 108//1 107//1
f 32//4 12//4 106//4 108//4
f 11//3 31//3 107//3 105//3
f 117//2 118//2 119//2 120//2
f 11//1 10//1 109//1 110//1
f 30//1 31//1 112//1 111//1
f 31//1 11//1 110//1 112//1
f 113//2 114//2 115//2 116//2
f 112//1 114//1 113//1 111//1
f 110//4 115//4 114//4 112//4
f 109//5 116//5 115//5 110//5
f 111//3 113//3 116//3 109//3
f 30//1 118//1 117//1 29//1
f 10//4 119//4 118//4 30//4
f 9//5 120//5 119//5 10//5
f 29//3 117//3 120//3 9//3
f 8//3 28//3 123//3 121//3
f 9//5 8//5 121//5 122//5
f 28//1 29//1 124//1 123//1
f 127//2 128//2 126//2 125//2
f 8//5 7//5 125//5 126//5
f 27//1 28//1 128//1 127//1
f 28//4 8//4 126//4 128//4
f 131//2 132//2 130//2 129//2
f 27//4 7//4 130//4 132//4
f 6//3 26//3 131//3 129//3
f 7//5 6//5 129//5 130//5
f 133//2 134//2 135//2 136//2
f 26//1 134//1 133//1 25//1
f 6//4 135//4 134//4 26//4
f 5//5 136//5 135//5 6//5
f 25//3 133//3 136//3 5//3
f 25//1 138//1 137//1 2//1
f 5//4 139//4 138//4 25//4
f 1//5 140//5 139//5 5//5
f 2//3 137//3 140//3 1//3
